<svg width="32" height="32" viewBox="0 0 32 32" fill="none" xmlns="http://www.w3.org/2000/svg">
<path d="M2.66699 15.9997C2.66699 10.9714 2.66699 8.45721 4.22909 6.8951C5.79119 5.33301 8.30534 5.33301 13.3337 5.33301H18.667C23.6953 5.33301 26.2095 5.33301 27.7715 6.8951C29.3337 8.45721 29.3337 10.9714 29.3337 15.9997C29.3337 21.0279 29.3337 23.5422 27.7715 25.1042C26.2095 26.6663 23.6953 26.6663 18.667 26.6663H13.3337C8.30534 26.6663 5.79119 26.6663 4.22909 25.1042C2.66699 23.5422 2.66699 21.0279 2.66699 15.9997Z" stroke="white" stroke-width="2"/>
<path d="M13.3333 21.333H8" stroke="white" stroke-width="2" stroke-linecap="round"/>
<path d="M18.667 21.333H16.667" stroke="white" stroke-width="2" stroke-linecap="round"/>
<path d="M2.66699 13.333H29.3337" stroke="white" stroke-width="2" stroke-linecap="round"/>
</svg>
