<svg width="28" height="21" viewBox="0 0 28 21" fill="none" xmlns="http://www.w3.org/2000/svg">
<path d="M26.25 21C26.25 21 28 21 28 19.25C28 17.5 26.25 12.25 19.25 12.25C12.25 12.25 10.5 17.5 10.5 19.25C10.5 21 12.25 21 12.25 21H26.25ZM12.2885 19.25C12.2756 19.2482 12.2627 19.2459 12.25 19.243C12.2517 18.781 12.5423 17.4405 13.58 16.233C14.546 15.1007 16.2435 14 19.25 14C22.2547 14 23.9522 15.1025 24.92 16.233C25.9578 17.4405 26.2465 18.7828 26.25 19.243L26.236 19.2465C26.2279 19.2479 26.2197 19.249 26.2115 19.25H12.2885ZM19.25 8.75C20.1783 8.75 21.0685 8.38125 21.7249 7.72487C22.3813 7.0685 22.75 6.17826 22.75 5.25C22.75 4.32174 22.3813 3.4315 21.7249 2.77513C21.0685 2.11875 20.1783 1.75 19.25 1.75C18.3217 1.75 17.4315 2.11875 16.7751 2.77513C16.1187 3.4315 15.75 4.32174 15.75 5.25C15.75 6.17826 16.1187 7.0685 16.7751 7.72487C17.4315 8.38125 18.3217 8.75 19.25 8.75ZM24.5 5.25C24.5 5.93944 24.3642 6.62213 24.1004 7.25909C23.8365 7.89605 23.4498 8.4748 22.9623 8.96231C22.4748 9.44982 21.896 9.83653 21.2591 10.1004C20.6221 10.3642 19.9394 10.5 19.25 10.5C18.5606 10.5 17.8779 10.3642 17.2409 10.1004C16.604 9.83653 16.0252 9.44982 15.5377 8.96231C15.0502 8.4748 14.6635 7.89605 14.3996 7.25909C14.1358 6.62213 14 5.93944 14 5.25C14 3.85761 14.5531 2.52226 15.5377 1.53769C16.5223 0.553124 17.8576 0 19.25 0C20.6424 0 21.9777 0.553124 22.9623 1.53769C23.9469 2.52226 24.5 3.85761 24.5 5.25ZM12.138 12.74C11.438 12.5196 10.7164 12.3747 9.9855 12.3077C9.57483 12.2687 9.16252 12.2494 8.75 12.25C1.75 12.25 0 17.5 0 19.25C0 20.4172 0.58275 21 1.75 21H9.128C8.86857 20.4537 8.73919 19.8547 8.75 19.25C8.75 17.4825 9.40975 15.6765 10.6575 14.168C11.0828 13.6535 11.578 13.1722 12.138 12.74ZM8.61 14C7.57427 15.5562 7.01477 17.3807 7 19.25H1.75C1.75 18.795 2.037 17.4475 3.08 16.233C4.03375 15.12 5.691 14.035 8.61 14.0018V14ZM2.625 6.125C2.625 4.73261 3.17812 3.39726 4.16269 2.41269C5.14726 1.42812 6.48261 0.875 7.875 0.875C9.26739 0.875 10.6027 1.42812 11.5873 2.41269C12.5719 3.39726 13.125 4.73261 13.125 6.125C13.125 7.51739 12.5719 8.85274 11.5873 9.83731C10.6027 10.8219 9.26739 11.375 7.875 11.375C6.48261 11.375 5.14726 10.8219 4.16269 9.83731C3.17812 8.85274 2.625 7.51739 2.625 6.125ZM7.875 2.625C6.94674 2.625 6.0565 2.99375 5.40013 3.65013C4.74375 4.3065 4.375 5.19674 4.375 6.125C4.375 7.05326 4.74375 7.9435 5.40013 8.59987C6.0565 9.25625 6.94674 9.625 7.875 9.625C8.80326 9.625 9.6935 9.25625 10.3499 8.59987C11.0063 7.9435 11.375 7.05326 11.375 6.125C11.375 5.19674 11.0063 4.3065 10.3499 3.65013C9.6935 2.99375 8.80326 2.625 7.875 2.625Z" fill="white"/>
</svg>
