<svg width="28" height="28" viewBox="0 0 28 28" fill="none" xmlns="http://www.w3.org/2000/svg">
<path d="M17.0023 12.0038H18.5379L14.9824 15.5596L11.0025 11.5795L5.30762 17.2743L6.72156 18.6886L11.0025 14.4076L14.9824 18.3878L19.9964 13.3735V15.0059H21.9966V10.0039H17.0023V12.0038Z" fill="white"/>
<path d="M22.6721 2H22.495C21.6634 2 20.8934 2.46785 20.4349 3.25098C20.2675 3.53617 19.8254 3.5709 19.6157 3.31742C18.9179 2.46785 17.9912 2 17.0005 2C16.0167 2 15.0903 2.46785 14.3916 3.31742C14.1997 3.55039 13.8095 3.54984 13.6186 3.31688C12.92 2.46785 11.9936 2 11.0098 2C10.0259 2 9.09953 2.46785 8.4009 3.31742C8.19145 3.57281 7.74957 3.53809 7.58195 3.25098C7.12258 2.46785 6.35258 2 5.52188 2H5.32363C4.04148 2 2.99805 3.04344 2.99805 4.32559V23.6743C2.99805 24.9564 4.04148 25.9999 5.32363 25.9999H5.52188C6.35258 25.9999 7.12258 25.532 7.5825 24.7478C7.74848 24.4621 8.19035 24.426 8.4009 24.6827C9.09953 25.5318 10.0259 25.9996 11.0098 25.9996C11.9936 25.9996 12.92 25.5318 13.6186 24.6822C13.8095 24.4503 14.1997 24.4487 14.3916 24.6827C15.0903 25.5318 16.0167 25.9996 17.0073 25.9996C17.9912 25.9996 18.9181 25.5318 19.6154 24.6833C19.8268 24.4268 20.2686 24.464 20.4346 24.7478C20.8937 25.532 21.6637 25.9999 22.4952 25.9999H22.6724C23.9546 25.9999 24.998 24.9564 24.998 23.6743V4.32586C24.9977 3.04344 23.9543 2 22.6721 2ZM22.9978 23.6743C22.9978 23.8539 22.8518 24 22.6721 24H22.495C22.3271 24 22.1966 23.7993 22.1605 23.7372C21.7132 22.974 20.8861 22.4999 20.0023 22.4999C19.2523 22.4999 18.5487 22.8324 18.0707 23.4129C17.8905 23.6322 17.5127 23.9997 17.0005 23.9997C16.4952 23.9997 16.1168 23.6316 15.9366 23.4129C14.9828 22.2513 13.0264 22.2527 12.0737 23.4123C11.8935 23.6316 11.5151 23.9997 11.0098 23.9997C10.5045 23.9997 10.126 23.6316 9.94582 23.4129C9.46922 22.8324 8.76512 22.4999 8.0148 22.4999C7.12996 22.4999 6.30281 22.9746 5.85656 23.7372C5.82047 23.7987 5.68949 24 5.52215 24H5.32391C5.14426 24 4.99824 23.8539 4.99824 23.6743V4.32586C4.99824 4.14621 5.14426 4.0002 5.32391 4.0002H5.52215C5.68949 4.0002 5.82047 4.20145 5.85602 4.26188C6.30281 5.02559 7.12996 5.50027 8.0148 5.50027C8.76539 5.50027 9.46949 5.16777 9.94582 4.58754C10.126 4.36824 10.5045 4.0002 11.0098 4.0002C11.5151 4.0002 11.8935 4.36824 12.0737 4.58699C13.0264 5.74773 14.9828 5.74801 15.9366 4.58754C16.1168 4.36824 16.4952 4.0002 17.0073 4.0002C17.5127 4.0002 17.8905 4.36797 18.0713 4.58809C18.5487 5.16777 19.2525 5.50027 20.0023 5.50027C20.8861 5.50027 21.7132 5.02613 22.1611 4.26188C22.1966 4.2009 22.3271 4.0002 22.495 4.0002H22.6721C22.8518 4.0002 22.9978 4.14621 22.9978 4.32586V23.6743Z" fill="white"/>
</svg>
